HIERARCHY
ROOT Walk
{
	OFFSET 0.000000 0.000000 0.000000
	CHANNELS 6 Xposition Yposition Zposition Xrotation Yrotation Zrotation
	JOINT BR_Root
	{
		OFFSET -0.565402 147.768600 -43.209831
		CHANNELS 3 Xrotation Yrotation Zrotation
		JOINT Hip
		{
			OFFSET -1.425131 -1.857498 0.000393
			CHANNELS 3 Xrotation Yrotation Zrotation
			JOINT B_L_Leg_1
			{
				OFFSET 15.140772 -18.123024 -21.768925
				CHANNELS 3 Xrotation Yrotation Zrotation
				JOINT B_L_Leg_2
				{
					OFFSET 2.655252 -37.649261 -3.475853
					CHANNELS 3 Xrotation Yrotation Zrotation
					JOINT B_L_Leg_3
					{
						OFFSET 1.213967 -30.892952 -38.831802
						CHANNELS 3 Xrotation Yrotation Zrotation
						JOINT B_L_Leg_4
						{
							OFFSET -0.793737 -36.906635 -7.562157
							CHANNELS 3 Xrotation Yrotation Zrotation
							JOINT B_L_Leg_5
							{
								OFFSET 0.000618 -14.329140 0.130951
								CHANNELS 3 Xrotation Yrotation Zrotation
								JOINT B_L_Leg______END
								{
									OFFSET 0.000500 -7.398694 2.835327
									CHANNELS 3 Xrotation Yrotation Zrotation
									End Site
									{
										OFFSET -0.000343 7.923367 -0.000954
									}
								}
							}
						}
					}
				}
			}
			JOINT Tail
			{
				OFFSET -3.291408 -2.424103 -49.385670
				CHANNELS 3 Xrotation Yrotation Zrotation
				JOINT Tail_1
				{
					OFFSET -0.899897 -2.217148 -3.489540
					CHANNELS 3 Xrotation Yrotation Zrotation
					JOINT Tail_2
					{
						OFFSET -0.977027 -2.919632 -3.083633
						CHANNELS 3 Xrotation Yrotation Zrotation
						JOINT Tail_3
						{
							OFFSET -1.185277 -3.752075 -3.141411
							CHANNELS 3 Xrotation Yrotation Zrotation
							JOINT Tail_4
							{
								OFFSET -1.990643 -7.117737 -4.426018
								CHANNELS 3 Xrotation Yrotation Zrotation
								JOINT Tail_5
								{
									OFFSET -1.997871 -9.546356 -4.127518
									CHANNELS 3 Xrotation Yrotation Zrotation
									JOINT Tail_6
									{
										OFFSET -1.178740 -12.952095 -3.734299
										CHANNELS 3 Xrotation Yrotation Zrotation
										JOINT Tail_7
										{
											OFFSET -0.808064 -17.252457 -2.168289
											CHANNELS 3 Xrotation Yrotation Zrotation
											JOINT Tail_8
											{
												OFFSET -3.165233 -21.494125 0.586266
												CHANNELS 3 Xrotation Yrotation Zrotation
												JOINT Tail_9
												{
													OFFSET -4.487404 -18.915901 2.367020
													CHANNELS 3 Xrotation Yrotation Zrotation
													JOINT Tail___CAP
													{
														OFFSET -7.447727 -20.265373 5.007713
														CHANNELS 3 Xrotation Yrotation Zrotation
														End Site
														{
															OFFSET 6.940163 19.755226 -7.266106
														}
													}
												}
											}
										}
									}
								}
							}
						}
					}
				}
			}
			JOINT B_R_Leg_1
			{
				OFFSET -18.337234 -18.123848 -19.153191
				CHANNELS 3 Xrotation Yrotation Zrotation
				JOINT B_R_Leg_2
				{
					OFFSET -7.308641 -30.355675 21.487434
					CHANNELS 3 Xrotation Yrotation Zrotation
					JOINT B_R_Leg_3
					{
						OFFSET 10.319277 -44.625408 -19.127075
						CHANNELS 3 Xrotation Yrotation Zrotation
						JOINT B_R_Leg_4
						{
							OFFSET -0.035845 -33.134872 17.944122
							CHANNELS 3 Xrotation Yrotation Zrotation
							JOINT B_R_Leg_5
							{
								OFFSET -0.000097 -11.649342 8.344688
								CHANNELS 3 Xrotation Yrotation Zrotation
								JOINT B_R_Leg______END
								{
									OFFSET -0.000095 -7.399056 2.834351
									CHANNELS 3 Xrotation Yrotation Zrotation
									End Site
									{
										OFFSET -0.000143 -7.923359 -0.000095
									}
								}
							}
						}
					}
				}
			}
		}
		JOINT Spine_1
		{
			OFFSET -1.265600 -2.463928 0.000477
			CHANNELS 3 Xrotation Yrotation Zrotation
			JOINT Spine_2
			{
				OFFSET 1.772684 -3.073135 20.824728
				CHANNELS 3 Xrotation Yrotation Zrotation
				JOINT Spine_3
				{
					OFFSET -0.197352 -1.411667 21.552061
					CHANNELS 3 Xrotation Yrotation Zrotation
					JOINT Spine_4
					{
						OFFSET -1.622275 0.417542 22.011095
						CHANNELS 3 Xrotation Yrotation Zrotation
						JOINT Spine_5
						{
							OFFSET -0.337100 0.360855 20.389105
							CHANNELS 3 Xrotation Yrotation Zrotation
							JOINT F_L_Leg_1
							{
								OFFSET 7.562794 -14.209923 6.913445
								CHANNELS 3 Xrotation Yrotation Zrotation
								JOINT F_L_Leg_2
								{
									OFFSET 3.653290 -9.713135 19.789536
									CHANNELS 3 Xrotation Yrotation Zrotation
									JOINT F_L_Leg_3
									{
										OFFSET 3.129760 -29.629776 -15.452511
										CHANNELS 3 Xrotation Yrotation Zrotation
										JOINT F_L_Leg_4
										{
											OFFSET 1.997342 -20.652466 35.746304
											CHANNELS 3 Xrotation Yrotation Zrotation
											JOINT F_L_Leg_5
											{
												OFFSET 2.906321 -25.733891 -17.616318
												CHANNELS 3 Xrotation Yrotation Zrotation
												JOINT F_L_Leg_6
												{
													OFFSET -0.000147 -8.685799 -10.359711
													CHANNELS 3 Xrotation Yrotation Zrotation
													JOINT F_L_Leg______END
													{
														OFFSET -0.000368 -1.894836 -8.464405
														CHANNELS 3 Xrotation Yrotation Zrotation
														End Site
														{
															OFFSET 0.000549 -1.955091 8.450691
														}
													}
												}
											}
										}
									}
								}
							}
							JOINT Neck_1
							{
								OFFSET -0.218921 -12.511490 20.293972
								CHANNELS 3 Xrotation Yrotation Zrotation
								JOINT Neck_2
								{
									OFFSET -0.324228 14.222534 8.601421
									CHANNELS 3 Xrotation Yrotation Zrotation
									JOINT Neck_3
									{
										OFFSET -0.266288 11.074081 6.798096
										CHANNELS 3 Xrotation Yrotation Zrotation
										JOINT Neck_4
										{
											OFFSET -0.286952 12.366043 8.220825
											CHANNELS 3 Xrotation Yrotation Zrotation
											JOINT Neck_5
											{
												OFFSET -0.134028 8.285522 9.317848
												CHANNELS 3 Xrotation Yrotation Zrotation
												JOINT Neck_6
												{
													OFFSET -0.190317 5.797424 10.739159
													CHANNELS 3 Xrotation Yrotation Zrotation
													JOINT Head
													{
														OFFSET -0.461128 1.085144 13.911362
														CHANNELS 3 Xrotation Yrotation Zrotation
														JOINT Ear_L_1
														{
															OFFSET 8.561840 6.185104 0.637024
															CHANNELS 3 Xrotation Yrotation Zrotation
															JOINT Ear_L_2
															{
																OFFSET 2.997534 4.938507 2.184265
																CHANNELS 3 Xrotation Yrotation Zrotation
																JOINT Ear_L_______END
																{
																	OFFSET 4.636709 5.257294 4.398689
																	CHANNELS 3 Xrotation Yrotation Zrotation
																	End Site
																	{
																		OFFSET 4.893785 6.672562 0.120506
																	}
																}
															}
														}
														JOINT Upper_Lip
														{
															OFFSET 0.179039 -33.419113 27.602631
															CHANNELS 3 Xrotation Yrotation Zrotation
															JOINT Upper_Lip________END
															{
																OFFSET -0.012485 -7.542999 5.682602
																CHANNELS 3 Xrotation Yrotation Zrotation
																End Site
																{
																	OFFSET -0.066871 9.443314 0.091080
																}
															}
														}
														JOINT Jaw
														{
															OFFSET 0.025005 -13.156921 0.462715
															CHANNELS 3 Xrotation Yrotation Zrotation
															JOINT Lower_Lip
															{
																OFFSET 0.271057 -26.655716 20.812279
																CHANNELS 3 Xrotation Yrotation Zrotation
																JOINT Lower_Lip_________END
																{
																	OFFSET -0.015864 -5.854172 4.949554
																	CHANNELS 3 Xrotation Yrotation Zrotation
																	End Site
																	{
																		OFFSET -0.054281 7.665573 0.073761
																	}
																}
															}
														}
														JOINT Ear_R_1
														{
															OFFSET -8.659555 6.065094 0.439758
															CHANNELS 3 Xrotation Yrotation Zrotation
															JOINT Ear_R_2
															{
																OFFSET -3.115387 4.896042 2.113426
																CHANNELS 3 Xrotation Yrotation Zrotation
																JOINT Ear_R_______END
																{
																	OFFSET -4.809237 5.192245 4.289680
																	CHANNELS 3 Xrotation Yrotation Zrotation
																	End Site
																	{
																		OFFSET 4.987882 -6.603821 -0.006195
																	}
																}
															}
														}
													}
												}
											}
										}
									}
								}
							}
							JOINT F_R_Leg_1
							{
								OFFSET -7.526427 -14.346596 6.666397
								CHANNELS 3 Xrotation Yrotation Zrotation
								JOINT F_R_Leg_2
								{
									OFFSET -7.077706 -18.523315 10.301136
									CHANNELS 3 Xrotation Yrotation Zrotation
									JOINT F_R_Leg_3
									{
										OFFSET -2.818224 -19.846863 -26.919310
										CHANNELS 3 Xrotation Yrotation Zrotation
										JOINT F_R_Leg_4
										{
											OFFSET 1.832611 -41.260101 1.601961
											CHANNELS 3 Xrotation Yrotation Zrotation
											JOINT F_R_Leg_5
											{
												OFFSET 1.096710 -30.303551 -7.842762
												CHANNELS 3 Xrotation Yrotation Zrotation
												JOINT F_R_Leg_6
												{
													OFFSET -0.000933 -9.996563 9.101475
													CHANNELS 3 Xrotation Yrotation Zrotation
													JOINT F_R_Leg______END
													{
														OFFSET -0.000898 -7.818611 3.755756
														CHANNELS 3 Xrotation Yrotation Zrotation
														End Site
														{
															OFFSET -0.001207 -8.673889 0.002007
														}
													}
												}
											}
										}
									}
								}
							}
							JOINT Reins_Hold
							{
								OFFSET -0.867753 40.101059 -15.018847
								CHANNELS 3 Xrotation Yrotation Zrotation
								End Site
								{
									OFFSET 0.525795 24.963455 -4.806616
								}
							}
						}
						JOINT LegStrap_L_01
						{
							OFFSET 29.620516 -10.166428 -7.897346
							CHANNELS 3 Xrotation Yrotation Zrotation
							JOINT LegStrap_L_02
							{
								OFFSET 1.448893 -2.586487 -0.139580
								CHANNELS 3 Xrotation Yrotation Zrotation
								JOINT LegStrap_L_03
								{
									OFFSET 1.644304 -6.919785 -1.106855
									CHANNELS 3 Xrotation Yrotation Zrotation
									JOINT LegStrap_L_04
									{
										OFFSET 1.482115 -4.847450 0.327724
										CHANNELS 3 Xrotation Yrotation Zrotation
										JOINT LegStrap_L_05
										{
											OFFSET 2.699516 -5.402382 -0.283574
											CHANNELS 3 Xrotation Yrotation Zrotation
											JOINT LegStrap_L_06_Twist
											{
												OFFSET 3.180824 -6.815361 -2.016232
												CHANNELS 3 Xrotation Yrotation Zrotation
												End Site
												{
													OFFSET -0.187565 7.029739 3.343580
												}
											}
										}
									}
								}
							}
						}
						JOINT LegStrap_R_01
						{
							OFFSET -29.157169 -10.698532 -8.859707
							CHANNELS 3 Xrotation Yrotation Zrotation
							JOINT LegStrap_R_02
							{
								OFFSET -1.972519 -1.747467 -0.059349
								CHANNELS 3 Xrotation Yrotation Zrotation
								JOINT LegStrap_R_03
								{
									OFFSET -1.067455 -7.223610 -0.281258
									CHANNELS 3 Xrotation Yrotation Zrotation
									JOINT LegStrap_R_04
									{
										OFFSET -1.425770 -7.118042 -0.611075
										CHANNELS 3 Xrotation Yrotation Zrotation
										JOINT LegStrap_R_05
										{
											OFFSET -0.992481 -4.636345 -1.384764
											CHANNELS 3 Xrotation Yrotation Zrotation
											JOINT LegStrap_R_06_Twist
											{
												OFFSET -1.403381 -5.738312 -3.562224
												CHANNELS 3 Xrotation Yrotation Zrotation
												End Site
												{
													OFFSET 6.719440 -1.409866 0.669691
												}
											}
										}
									}
								}
							}
						}
					}
				}
			}
		}
	}
}
MOTION
Frames: 4
Frame Time: 0.033333
0.000000 0.000000 0.000000 0.000007 -0.000000 -0.000000 0.000037 0.000031 0.000051 -0.000000 -0.000029 -0.000058 -0.000007 0.000005 0.000004 0.000004 -0.000004 0.000002 0.000011 -0.000008 -0.000007 -0.000010 0.000011 0.000008 -0.000019 -0.000000 -0.000013 -0.000008 -0.000000 0.000000 0.000078 -0.000029 -0.000005 0.000019 0.000004 -0.000006 0.000101 -0.000000 -0.000038 -0.000112 0.000003 0.000039 -0.000089 0.000018 0.000010 -0.000011 -0.000000 0.000009 -0.000060 0.000005 0.000002 0.000041 -0.000003 -0.000003 0.000038 -0.000011 -0.000008 -0.000027 -0.000002 0.000013 -0.000001 0.000000 -0.000005 -0.000003 0.000002 0.000009 -0.000014 0.000001 -0.000003 0.000003 -0.000002 0.000002 0.000012 0.000009 0.000001 -0.000009 -0.000004 -0.000002 0.000002 -0.000000 -0.000000 0.000049 -0.000031 -0.000074 -0.000077 -0.000001 0.000025 0.000067 0.000000 0.000052 -0.000036 -0.000002 -0.000042 -0.000000 -0.000023 -0.000013 -0.000024 0.000007 0.000003 0.000015 0.000008 -0.000005 -0.000025 -0.000012 -0.000003 0.000028 -0.000005 -0.000007 0.000038 -0.000003 0.000005 -0.000021 0.000000 0.000022 -0.000001 0.000000 0.000000 -0.000008 0.000020 0.000001 0.000026 0.000002 0.000000 -0.000057 -0.000002 -0.000001 0.000028 0.000003 0.000001 -0.000007 -0.000001 -0.000000 -0.000048 -0.000002 -0.000001 0.000079 -0.000051 -0.000045 -0.000072 0.000073 0.000102 0.000080 -0.000019 -0.000056 0.000001 -0.000002 -0.000004 -0.000021 0.000054 0.000048 -0.000000 0.000000 0.000000 -0.000000 0.000052 0.000048 0.000004 -0.000000 -0.000000 -0.000001 0.000000 0.000000 -0.000044 -0.000023 0.000129 0.000048 0.000077 -0.000085 -0.000007 -0.000006 0.000001 -0.000005 0.000037 -0.000048 0.000077 -0.000021 0.000013 -0.000022 0.000005 -0.000006 0.000007 -0.000000 0.000000 -0.000016 0.000008 0.000010 0.000012 -0.000008 -0.000009 0.000003 -0.000000 0.000000 -0.000001 -0.000001 0.000007 -0.000000 -0.000000 0.000000 0.000000 0.000000 0.000001 -0.000001 0.000006 -0.000004 -0.000002 0.000002 0.000004 0.000001 -0.000006 -0.000003 0.000003 0.000000 -0.000002 0.000000 0.000000 0.000000 -0.000000 0.000001 0.000000 -0.000000 -0.000001 -0.000000 0.000001 0.000002 0.000000 0.000003 0.000009 0.000004 0.000004 -0.000004 0.000001 
0.000000 0.000000 0.000000 0.000007 -0.000000 -0.000000 0.000037 0.000031 0.000051 0.034819 -0.049045 -0.004591 -0.873118 -0.172081 -0.066018 1.895399 0.119043 -0.111568 -1.646339 0.042362 -0.123874 0.691926 0.062002 0.296692 0.940998 0.000040 -0.000072 0.000010 0.000000 -0.000000 -0.186743 -0.663359 0.423837 0.788108 0.037417 -0.269141 -0.218670 0.001174 0.084530 -0.420596 0.048293 0.105375 -0.471138 0.055690 0.119490 -0.118997 -0.005381 0.084653 0.350760 -0.003915 -0.099361 0.606461 -0.051561 -0.243506 0.133204 -0.019749 0.122116 0.460188 -0.075165 0.511936 -0.000004 0.000003 -0.000004 -0.047291 0.541996 -0.279910 0.562101 0.035217 0.281640 -0.441056 -0.028979 -0.055463 -0.033924 -0.496619 0.052881 -0.074036 -0.000002 -0.000001 -0.000006 -0.000000 0.000000 0.852737 -0.041097 -0.056622 -0.714595 0.090528 0.020122 -0.119711 0.107757 -0.007483 -0.009268 -0.126017 0.002400 -0.000000 -0.000022 -0.000013 0.054098 0.023728 0.085136 0.080230 -0.041581 -0.044263 -4.426015 -0.293624 0.037459 -2.984203 0.194840 0.030185 4.748280 0.081686 -0.064095 1.214174 0.000058 -0.000043 -0.000001 -0.000000 0.000000 -0.088458 -0.000703 -0.001412 -0.133732 -0.001500 -0.002385 0.041955 0.000349 0.000653 0.098193 0.000728 0.001858 0.010489 0.003113 -0.001575 -0.000048 -0.000004 -0.000004 -0.020180 -0.003191 -0.004237 -0.000067 0.000078 0.000109 0.000089 -0.000030 -0.000054 0.000010 -0.000007 -0.000000 -0.000021 0.000054 0.000048 -0.000000 -0.000000 -0.000000 0.000002 0.000052 0.000048 0.000007 0.000002 -0.000004 -0.000009 0.000000 -0.000000 -0.000037 -0.000024 0.000117 0.000048 0.000079 -0.000086 -0.000004 -0.000003 -0.000001 0.299491 -0.305086 -0.143714 -0.315574 0.280286 0.178870 5.047248 0.184642 0.056683 0.837567 0.040125 -0.022878 -3.376790 -0.234916 -0.045332 -2.501716 0.000334 0.000126 -0.000007 0.000000 0.000000 -0.074738 -0.016660 0.026213 -0.000000 0.000001 -0.000015 -0.000001 0.000000 -0.000002 -0.057296 0.000667 -0.002596 -0.060076 0.000316 0.000533 -0.064530 0.018802 0.000273 -0.054339 -0.003031 0.000575 0.000000 0.000001 -0.000004 -0.000001 -0.000005 0.000000 0.000000 -0.000003 0.000000 -0.055094 0.000705 -0.002390 -0.056783 -0.001377 -0.001095 -0.056292 -0.001182 0.000157 
0.000000 0.000000 0.000000 0.000007 -0.000000 -0.000000 0.000037 0.000031 0.000051 0.139616 -0.183183 -0.009203 -3.464141 -0.660098 -0.257996 7.139440 0.477664 -0.435040 -6.177322 0.191192 -0.476724 2.738950 0.158542 1.098352 3.540710 0.000146 -0.000239 -0.000002 -0.000000 -0.000000 -0.388686 -1.294105 0.870613 1.534760 0.074889 -0.529606 -0.406929 0.002093 0.158584 -0.820214 0.097372 0.206530 -0.945886 0.110889 0.240101 -0.253575 -0.013131 0.183706 0.719757 -0.010573 -0.194399 1.256405 -0.113248 -0.496709 0.269282 -0.044994 0.222812 0.914231 -0.148835 0.978530 -0.000000 0.000000 -0.000006 -0.248984 1.798916 -0.938718 1.983875 0.129895 1.002769 -1.551395 -0.099661 -0.196184 -0.029352 -1.609363 0.152824 -0.282040 0.000001 0.000001 -0.000002 0.000000 0.000000 1.541132 -0.163784 -0.115283 -1.338907 0.255091 0.043941 -0.194498 0.289755 -0.014575 0.009877 -0.307617 0.010934 -0.000000 -0.000022 -0.000013 0.306176 0.134373 0.251008 0.236260 -0.160632 -0.158511 -9.532242 -0.561046 -0.015224 -7.872305 0.482196 0.077168 8.959510 0.021778 -0.015797 1.246651 0.000061 -0.000037 -0.000003 0.000000 0.000000 -0.339650 -0.003466 -0.008853 -0.496454 -0.003952 -0.005755 0.160917 0.003448 0.005301 0.364749 -0.002174 0.006085 0.041891 0.011236 -0.001509 -0.000046 -0.000007 -0.000011 -0.077108 -0.010054 -0.009368 -0.000087 0.000082 0.000072 0.000080 -0.000030 -0.000058 0.000012 -0.000009 0.000005 -0.000022 0.000054 0.000048 -0.000000 -0.000000 -0.000000 -0.000002 0.000056 0.000043 0.000011 0.000005 -0.000007 -0.000004 -0.000000 -0.000000 -0.000037 -0.000018 0.000140 0.000045 0.000084 -0.000083 -0.000001 -0.000002 0.000003 1.266943 -1.210088 -0.626539 -1.314393 1.134834 0.723878 7.229655 0.347043 0.347655 6.132638 0.332574 -0.163750 -4.600422 -0.718767 -0.199798 -8.745192 0.001160 0.000525 -0.000011 0.000000 -0.000000 -0.298885 -0.052125 0.097296 -0.000000 0.000001 -0.000015 -0.000000 0.000000 0.000001 -0.218381 -0.002640 -0.005185 -0.218158 -0.004369 -0.001060 -0.217307 -0.007554 -0.004225 -0.216734 -0.009692 -0.002629 -0.000000 -0.000013 -0.000008 -0.000000 -0.000003 -0.000000 -0.000001 -0.000003 -0.000001 -0.218273 0.002262 -0.006828 -0.216177 0.000159 -0.004636 -0.214846 -0.000264 -0.006068 
0.000000 0.000000 0.000000 0.000007 -0.000000 -0.000000 -0.000039 0.000031 0.000051 0.296616 -0.401496 -0.019721 -7.769306 -1.577835 -0.265727 14.774621 1.058033 -1.368117 -11.548118 0.617587 -1.432841 5.017514 0.299834 2.769548 7.456009 0.000290 -0.000500 -0.000002 0.000000 -0.000000 -0.598510 -1.905008 1.332012 2.250378 0.113937 -0.785340 -0.568157 0.005816 0.220212 -1.203326 0.147257 0.299319 -1.427753 0.166089 0.362459 -0.403485 -0.020915 0.292453 1.096494 -0.019532 -0.283578 1.941134 -0.177869 -0.750779 0.421926 -0.070314 0.313920 1.357690 -0.220026 1.415668 -0.000002 0.000000 -0.000007 -0.484370 3.487601 -1.827673 4.020254 0.280102 2.035352 -3.153520 -0.198889 -0.399170 -0.050798 -3.021729 0.247821 -0.616831 0.000007 0.000006 0.000000 0.000000 -0.000000 2.079050 -0.360619 -0.178369 -1.894101 0.493480 0.072884 -0.227609 0.542716 -0.025167 0.057684 -0.541463 0.018658 -0.000000 -0.000022 -0.000013 0.746821 0.328985 0.481097 0.436216 -0.359430 -0.337724 -13.601157 -0.592234 -0.246686 -14.842319 0.825179 0.132885 11.829620 -0.358418 0.260699 0.464393 0.000025 0.000012 -0.000003 -0.000000 0.000000 -0.707849 -0.006417 -0.014762 -1.045956 -0.010024 -0.015609 0.332444 0.004899 0.007960 0.768220 -0.008910 0.012130 0.087348 0.017714 -0.004171 -0.000047 -0.000013 -0.000021 -0.166470 -0.020130 -0.018860 -0.000090 0.000094 0.000070 0.000065 -0.000035 -0.000065 0.000003 -0.000003 0.000005 -0.000020 0.000054 0.000048 -0.000000 0.000000 -0.000000 0.000000 0.000060 0.000038 0.000009 0.000011 -0.000014 -0.000002 -0.000000 -0.000000 -0.000037 -0.000020 0.000139 0.000040 0.000087 -0.000082 -0.000002 0.000000 -0.000001 2.701923 -2.647047 -1.376431 -2.830542 2.472445 1.613624 8.555603 0.549294 0.799316 11.673589 0.677362 -0.319305 -3.376411 -1.393273 -0.420335 -16.794641 0.002151 0.001169 -0.000019 0.000000 -0.000000 -0.660064 -0.122004 0.212770 -0.000000 0.000002 -0.000030 -0.000001 0.000000 -0.000002 -0.465119 -0.006734 -0.011700 -0.467391 -0.012107 -0.008088 -0.469700 -0.001373 -0.005583 -0.466647 -0.017341 -0.010191 0.000000 -0.000013 -0.000014 0.000000 -0.000006 0.000000 0.000001 -0.000005 0.000001 -0.464560 0.001510 -0.015242 -0.464244 -0.000348 -0.014440 -0.466860 -0.000882 -0.013057 
